<svg xmlns="http://www.w3.org/2000/svg" xmlns:xlink="http://www.w3.org/1999/xlink" width="542.061" height="123.693" viewBox="0 0 542.061 123.693">
  <defs>
    <clipPath id="clip-path">
      <path id="Tracé_275" data-name="Tracé 275" d="M0,77.527H542.061V-46.166H0Z" transform="translate(0 46.166)" fill="#007fff"/>
    </clipPath>
  </defs>
  <g id="Groupe_292" data-name="Groupe 292" transform="translate(0 46.166)">
    <g id="Groupe_244" data-name="Groupe 244" transform="translate(0 -46.166)" clip-path="url(#clip-path)">
      <g id="Groupe_233" data-name="Groupe 233" transform="translate(88.887 19.793)">
        <path id="Tracé_264" data-name="Tracé 264" d="M0,21.707A33.383,33.383,0,0,1,10.128-2.8a33.385,33.385,0,0,1,24.5-10.125A33.391,33.391,0,0,1,59.14-2.8l.078.078L48.7,7.79l-.078-.075a19.071,19.071,0,0,0-13.994-5.8,19.065,19.065,0,0,0-13.991,5.8,19.058,19.058,0,0,0-5.8,13.991V56.339H0Z" transform="translate(0 12.926)" fill="#007fff"/>
      </g>
      <g id="Groupe_234" data-name="Groupe 234" transform="translate(153.206 0)">
        <path id="Tracé_265" data-name="Tracé 265" d="M9.3,21.708V41.5a19.063,19.063,0,0,0,5.8,13.991,19.062,19.062,0,0,0,13.991,5.8V76.133a33.381,33.381,0,0,1-24.5-10.128A33.381,33.381,0,0,1-5.54,41.5V-12.927H9.3V7.709H29.093v14Z" transform="translate(5.54 12.927)" fill="#007fff"/>
      </g>
      <g id="Groupe_235" data-name="Groupe 235" transform="translate(276.897 19.793)">
        <path id="Tracé_266" data-name="Tracé 266" d="M34.112,21.707a19.058,19.058,0,0,0-5.8-13.991,19.071,19.071,0,0,0-13.994-5.8A19.065,19.065,0,0,0,.328,7.715a19.058,19.058,0,0,0-5.8,13.991V56.339H-20.313V21.707A33.383,33.383,0,0,1-10.185-2.8a33.389,33.389,0,0,1,24.5-10.125A33.391,33.391,0,0,1,38.827-2.8,37.1,37.1,0,0,1,41.533.216,36.6,36.6,0,0,1,44.24-2.8a33.385,33.385,0,0,1,24.5-10.125A33.391,33.391,0,0,1,93.252-2.8,33.383,33.383,0,0,1,103.38,21.707V56.339H88.536V21.707a19.058,19.058,0,0,0-5.8-13.991,19.777,19.777,0,0,0-27.985,0,19.058,19.058,0,0,0-5.8,13.991V56.339H34.112Z" transform="translate(20.313 12.926)" fill="#007fff"/>
      </g>
      <g id="Groupe_236" data-name="Groupe 236" transform="translate(410.485 19.793)">
        <path id="Tracé_267" data-name="Tracé 267" d="M0,22.763V-13.555H14.843V23.607a19.062,19.062,0,0,0,5.8,13.991,19.062,19.062,0,0,0,13.991,5.8,19.068,19.068,0,0,0,13.994-5.8,19.062,19.062,0,0,0,5.8-13.991V-13.555H69.268V55.71A33.383,33.383,0,0,1,59.14,80.218,33.383,33.383,0,0,1,34.633,90.346V75.5a19.068,19.068,0,0,0,13.994-5.8,19.068,19.068,0,0,0,5.8-13.994V51.29A33.258,33.258,0,0,1,34.633,57.4a33.367,33.367,0,0,1-24.5-10.128A33.373,33.373,0,0,1,0,22.763" transform="translate(0 13.555)" fill="#007fff"/>
      </g>
      <g id="Groupe_237" data-name="Groupe 237" transform="translate(489.57 19.792)">
        <path id="Tracé_268" data-name="Tracé 268" d="M13.248,0H41.665V13.153H15.491c-5.257.051-8.962,1.541-8.922,5.206.062,5.5,4.833,7.288,15.62,10.693,7.414,2.342,12.119,3.671,15.969,6.655A15.7,15.7,0,0,1,44.6,48.193c0,7.371-2.141,11.671-6.417,15.43S27.647,69.268,19.4,69.268H-7.811l-.078-13.579h26.9c6.495-.257,9.871-3.223,10.128-6.366q0-4.023-6.339-5.645c-14.275-4.63-20.9-7.02-24.526-10.136A17.411,17.411,0,0,1-7.811,20.256C-7.811,6.65,1.167,0,13.248,0" transform="translate(7.889)" fill="#007fff"/>
      </g>
      <g id="Groupe_238" data-name="Groupe 238" transform="translate(196.957 19.793)">
        <path id="Tracé_269" data-name="Tracé 269" d="M37.709,6.576A33.651,33.651,0,0,0,12.778-3.916,33.651,33.651,0,0,0-12.153,6.576a34.918,34.918,0,0,0-10.3,25.392,36.444,36.444,0,0,0,10.3,26.054c6.87,7,15.178,9.828,24.931,9.828A33.651,33.651,0,0,0,37.709,57.357l.078-.08-8.654-8.161c-4.03,4.054-10.262,7.229-16.411,7.229-12.151,0-19.776-8.231-21.654-19.227H42.979l0-.024h4.563a28.109,28.109,0,0,0,.472-5.126,34.918,34.918,0,0,0-10.3-25.392M12.722,9.585A22.272,22.272,0,0,1,33.65,24.343H-8.206A22.275,22.275,0,0,1,12.722,9.585" transform="translate(22.455 3.916)" fill="#007fff"/>
      </g>
      <g id="Groupe_239" data-name="Groupe 239" transform="translate(238.065 97.498)">
        <path id="Tracé_270" data-name="Tracé 270" d="M14.4,16.044h-2.8L10.93,13.1a10.405,10.405,0,0,1-3.5,2.768,9.942,9.942,0,0,1-4.027.769,11.784,11.784,0,0,1-5.024-1.032,11.036,11.036,0,0,1-3.764-2.819A12.557,12.557,0,0,1-7.75,8.62a15.412,15.412,0,0,1-.823-5.077A15.32,15.32,0,0,1-7.75-1.5,12.544,12.544,0,0,1-5.387-5.666,11.217,11.217,0,0,1-1.623-8.5,11.593,11.593,0,0,1,3.4-9.554,13.6,13.6,0,0,1,7.27-9.01,10.294,10.294,0,0,1,10.544-7.4a8.894,8.894,0,0,1,2.382,2.679,9.4,9.4,0,0,1,1.19,3.711H9.845a5.522,5.522,0,0,0-.753-2.154A5.517,5.517,0,0,0,7.639-4.721a6.338,6.338,0,0,0-1.961-.946A8.176,8.176,0,0,0,3.4-5.982a7.017,7.017,0,0,0-3.448.806A6.768,6.768,0,0,0-2.411-3.022,9.636,9.636,0,0,0-3.758.041a14.174,14.174,0,0,0,0,7,9.625,9.625,0,0,0,1.348,3.065A6.768,6.768,0,0,0-.047,12.264a7.016,7.016,0,0,0,3.448.8,8.173,8.173,0,0,0,2.977-.437,5.936,5.936,0,0,0,2.189-1.366A5.71,5.71,0,0,0,9.914,9.075a9.27,9.27,0,0,0,.49-2.87H3.752V2.878H14.4Z" transform="translate(8.573 9.554)" fill="#404040"/>
      </g>
      <g id="Groupe_240" data-name="Groupe 240" transform="translate(276.266 98.094)">
        <path id="Tracé_271" data-name="Tracé 271" d="M0,0H11.942q4.131,0,6.2,1.787A6.22,6.22,0,0,1,20.2,6.757a7.251,7.251,0,0,1-.525,2.961,6.4,6.4,0,0,1-1.227,1.889,4.739,4.739,0,0,1-1.383,1.034c-.455.209-.788.351-1,.421v.07a4.533,4.533,0,0,1,1.208.351,3.611,3.611,0,0,1,1.208.892,4.9,4.9,0,0,1,.927,1.594,7.06,7.06,0,0,1,.367,2.449,22.15,22.15,0,0,0,.332,4.011A5.244,5.244,0,0,0,21.15,25H16.459a4.047,4.047,0,0,1-.579-1.784q-.088-.981-.088-1.892a18.1,18.1,0,0,0-.209-2.958,5.132,5.132,0,0,0-.772-2.066,3.258,3.258,0,0,0-1.522-1.208,6.721,6.721,0,0,0-2.47-.386H4.378V25H0ZM4.378,11.382h7.178a4.555,4.555,0,0,0,3.186-1A3.869,3.869,0,0,0,15.827,7.39a4.655,4.655,0,0,0-.348-1.945,2.856,2.856,0,0,0-.965-1.174,3.563,3.563,0,0,0-1.4-.56,9.491,9.491,0,0,0-1.626-.139H4.378Z" fill="#404040"/>
      </g>
      <g id="Groupe_241" data-name="Groupe 241" transform="translate(310.056 97.498)">
        <path id="Tracé_272" data-name="Tracé 272" d="M7.506,0A11.631,11.631,0,0,1,12.53,1.05a11.189,11.189,0,0,1,3.764,2.837A12.6,12.6,0,0,1,18.66,8.054a15.39,15.39,0,0,1,.823,5.042,15.482,15.482,0,0,1-.823,5.077,12.57,12.57,0,0,1-2.366,4.166,11,11,0,0,1-3.764,2.819,11.784,11.784,0,0,1-5.024,1.034,11.784,11.784,0,0,1-5.024-1.034A11,11,0,0,1-1.282,22.34a12.57,12.57,0,0,1-2.366-4.166A15.482,15.482,0,0,1-4.47,13.1a15.39,15.39,0,0,1,.823-5.042A12.6,12.6,0,0,1-1.282,3.888,11.189,11.189,0,0,1,2.483,1.05,11.631,11.631,0,0,1,7.506,0m0,3.572a6.98,6.98,0,0,0-3.448.806A6.735,6.735,0,0,0,1.7,6.529,9.716,9.716,0,0,0,.345,9.595a14.258,14.258,0,0,0,0,7A9.674,9.674,0,0,0,1.7,19.661a6.717,6.717,0,0,0,2.363,2.154,6.98,6.98,0,0,0,3.448.806,6.98,6.98,0,0,0,3.448-.806,6.749,6.749,0,0,0,2.366-2.154A9.73,9.73,0,0,0,14.668,16.6a14.258,14.258,0,0,0,0-7,9.772,9.772,0,0,0-1.348-3.065,6.767,6.767,0,0,0-2.366-2.151,6.98,6.98,0,0,0-3.448-.806" transform="translate(4.47)" fill="#404040"/>
      </g>
      <g id="Groupe_242" data-name="Groupe 242" transform="translate(348.19 98.094)">
        <path id="Tracé_273" data-name="Tracé 273" d="M0,0H4.378V14.567c0,.839.04,1.693.121,2.556a5.856,5.856,0,0,0,.7,2.328,4.473,4.473,0,0,0,1.75,1.7,6.8,6.8,0,0,0,3.309.664,6.789,6.789,0,0,0,3.309-.664,4.481,4.481,0,0,0,1.752-1.7,5.811,5.811,0,0,0,.7-2.328c.083-.863.123-1.717.123-2.556V0h4.378V16a10.983,10.983,0,0,1-.737,4.2A8.064,8.064,0,0,1,17.7,23.2,8.662,8.662,0,0,1,14.463,25a13.894,13.894,0,0,1-4.2.6,13.876,13.876,0,0,1-4.2-.6,8.673,8.673,0,0,1-3.239-1.8A8.1,8.1,0,0,1,.734,20.2,11.036,11.036,0,0,1,0,16Z" fill="#404040"/>
      </g>
      <g id="Groupe_243" data-name="Groupe 243" transform="translate(384.221 98.094)">
        <path id="Tracé_274" data-name="Tracé 274" d="M0,0H11.031a10.46,10.46,0,0,1,4.34.772A6.847,6.847,0,0,1,17.965,2.7a6.549,6.549,0,0,1,1.241,2.521,10.7,10.7,0,0,1,.335,2.521,10.485,10.485,0,0,1-.335,2.505,6.53,6.53,0,0,1-1.241,2.5,6.685,6.685,0,0,1-2.594,1.908,10.659,10.659,0,0,1-4.34.753H4.378V25H0ZM4.378,11.834h6.406a5.742,5.742,0,0,0,1.506-.209,4.3,4.3,0,0,0,1.42-.683,3.506,3.506,0,0,0,1.05-1.259,4.342,4.342,0,0,0,.4-1.98,5.124,5.124,0,0,0-.351-2.031,3.26,3.26,0,0,0-.946-1.278A3.4,3.4,0,0,0,12.5,3.746a7.526,7.526,0,0,0-1.648-.174H4.378Z" fill="#404040"/>
      </g>
    </g>
    <g id="Groupe_245" data-name="Groupe 245" transform="translate(418.046 51.928)">
      <path id="Tracé_276" data-name="Tracé 276" d="M0,0V25H18.243V21.22H4.375V13.9H16.984V10.331H4.375V3.781H18V0Z" fill="#404040"/>
    </g>
    <g id="Groupe_248" data-name="Groupe 248" transform="translate(0 -46.166)" clip-path="url(#clip-path)">
      <g id="Groupe_246" data-name="Groupe 246" transform="translate(0 19.629)">
        <path id="Tracé_277" data-name="Tracé 277" d="M33.323,16.472S25.7,6.728,14.87,7.679C4.957,8.55-.4,15.561-1.264,21.638S-.975,34.654,5.15,39.67c5.329,4.365,15.339,4.978,22.962-2.272,8.1-7.708,10.3-20.974,11.593-30.766,1.235-9.348.774-13.193.774-13.193l17.938.091a18.933,18.933,0,0,1,.131,2.484c0,13.7-1.685,42.456-20.679,58.2C29.435,61.2,15.039,63.4,3.607,59.191-6.042,55.644-12.748,48.5-15.521,43.271c-3.834-7.237-7.617-19.146.447-35.032S8.437-9.809,16.588-9.809c10.27,0,19.1,5.1,19.1,5.1s.035,2.894-.26,7.06c-.284,4.011-.951,10.275-2.109,14.123" transform="translate(19.843 9.809)" fill="#007fff"/>
      </g>
      <g id="Groupe_247" data-name="Groupe 247" transform="translate(59.109 56.11)">
        <path id="Tracé_278" data-name="Tracé 278" d="M0,19.571V21.3H19.768V-11.654S14.8,12.01,0,19.571" transform="translate(0 11.654)" fill="#007fff"/>
      </g>
    </g>
  </g>
</svg>